<?xml version="1.0" encoding="iso-8859-1"?>
<!-- Generator: Adobe Illustrator 17.1.0, SVG Export Plug-In . SVG Version: 6.00 Build 0)  -->
<!DOCTYPE svg PUBLIC "-//W3C//DTD SVG 1.1//EN" "http://www.w3.org/Graphics/SVG/1.1/DTD/svg11.dtd">
<svg version="1.1" id="Capa_1" xmlns="http://www.w3.org/2000/svg" xmlns:xlink="http://www.w3.org/1999/xlink" x="0px" y="0px"
	 viewBox="0 0 425.404 425.404" style="enable-background:new 0 0 425.404 425.404;" xml:space="preserve">
<g>
	<path d="M62.975,74.857h299.461c3.335,0,6.144-1.435,7.705-3.936c1.561-2.502,1.615-5.655,0.157-8.633L362.5,46.195
		c-2.332-4.62-7.992-8.104-13.167-8.104H76.319c-5.16,0-10.831,3.461-13.227,8.124l-7.915,16.042
		c-1.491,2.992-1.457,6.146,0.096,8.654C56.824,73.419,59.631,74.857,62.975,74.857z"/>
	<path d="M425.39,376.065c-0.355-6.908-8.861-169.808-23.691-225.707c-2.594-9.778-13.919-35.885-14.4-36.991
		c-2.108-4.852-7.687-8.51-12.977-8.51H51.36c-5.277,0-10.866,3.64-12.999,8.466c-0.489,1.107-12.012,27.22-14.646,37.02
		C8.703,206.203,0.362,369.16,0.014,376.07c-0.149,2.976,0.888,5.792,2.92,7.929s4.793,3.314,7.772,3.314h173.575
		c5.824,0,10.981-4.523,11.739-10.298l14.062-107.07c0.105-0.802,1.073-1.661,1.883-1.67l0.748-0.009
		c0.779,0,1.679,0.782,1.784,1.55L229.1,377.043c0.784,5.759,5.952,10.271,11.764,10.271h173.84c2.98,0,5.741-1.178,7.772-3.317
		C424.508,381.858,425.542,379.041,425.39,376.065z M100.773,170.337l-15.151,66.413c-1.851,8.113-9.063,13.611-17.046,13.611
		c-1.289,0-2.598-0.144-3.908-0.442c-9.423-2.149-15.319-11.531-13.169-20.954l15.151-66.413
		c2.149-9.423,11.531-15.319,20.954-13.169C97.027,151.532,102.923,160.914,100.773,170.337z M353.68,249.918
		c-1.31,0.299-2.62,0.442-3.908,0.442c-7.984,0-15.195-5.498-17.046-13.611l-15.151-66.413c-2.15-9.423,3.746-18.805,13.169-20.954
		c9.423-2.149,18.804,3.747,20.954,13.169l15.151,66.413C368.999,238.387,363.103,247.769,353.68,249.918z"/>
</g>
<g>
</g>
<g>
</g>
<g>
</g>
<g>
</g>
<g>
</g>
<g>
</g>
<g>
</g>
<g>
</g>
<g>
</g>
<g>
</g>
<g>
</g>
<g>
</g>
<g>
</g>
<g>
</g>
<g>
</g>
</svg>
